<svg width="50" height="50" viewBox="0 0 50 50" fill="none" xmlns="http://www.w3.org/2000/svg">
<g clip-path="url(#clip0_356_4180)">
<path d="M44.75 38.0352C44.75 39.3248 43.7046 40.3703 42.4151 40.3703H7.5849C6.29536 40.3704 5.25 39.3248 5.25 38.0352V15.4644C5.25 14.1748 6.29536 13.1294 7.5849 13.1294H42.4151C43.7047 13.1294 44.75 14.1748 44.75 15.4644V38.0352Z" fill="#306FC5"/>
<path opacity="0.15" d="M6.91 38.0352V15.4644C6.91 14.1748 7.95552 13.1294 9.24505 13.1294H7.58482C6.29536 13.1294 5.25 14.1748 5.25 15.4644V38.0353C5.25 39.3249 6.29536 40.3704 7.5849 40.3704H9.24513C7.9556 40.3704 6.91 39.3248 6.91 38.0352Z" fill="#202121"/>
<path d="M11.0044 24.0304H12.1846L11.5947 22.5283L11.0044 24.0304Z" fill="white"/>
<path d="M17.281 29.0728V29.7703H19.266V30.5214H17.281V31.3263H19.4804L20.4996 30.1995L19.5341 29.0728H17.281Z" fill="white"/>
<path d="M32.7839 22.5283L32.1401 24.0304H33.3741L32.7839 22.5283Z" fill="white"/>
<path d="M23.0208 31.755V28.6973L21.626 30.1994L23.0208 31.755Z" fill="white"/>
<path d="M25.6494 29.5558C25.5957 29.2339 25.3809 29.0728 25.0589 29.0728H23.9326V30.0383H25.1129C25.4347 30.0384 25.6494 29.8776 25.6494 29.5558Z" fill="white"/>
<path d="M29.4043 29.9312C29.5117 29.8774 29.5655 29.7163 29.5655 29.5557C29.6192 29.3413 29.5117 29.2339 29.4043 29.1802C29.2973 29.1265 29.1362 29.1265 28.9755 29.1265H27.9023V29.9849H28.9754C29.1361 29.9849 29.2973 29.9849 29.4043 29.9312Z" fill="white"/>
<path d="M37.129 21.1333V21.777L36.8073 21.1333H34.2863V21.777L33.9642 21.1333H30.531C29.941 21.1333 29.4579 21.2407 29.029 21.4552V21.1333H26.6151V21.187V21.4552C26.3469 21.2408 26.0251 21.1333 25.5959 21.1333H16.9591L16.3688 22.4744L15.7788 21.1333H13.8477H13.043V21.777L12.7747 21.1333H12.721H10.4144L9.34132 23.6545L8.10764 26.3903L8.08496 26.4441H8.10764H10.8436H10.8778L10.8973 26.3903L11.2193 25.5858H11.9166L12.2385 26.4441H15.3496V26.3903V25.8004L15.618 26.444H17.1735L17.4416 25.8004V26.3903V26.4441H18.6754H24.8446H24.8983V25.0493H25.0059C25.113 25.0493 25.113 25.0493 25.113 25.2103V26.3904H28.9754V26.0686C29.2973 26.2297 29.7798 26.3904 30.4236 26.3904H32.0331L32.355 25.5323H33.1058L33.4277 26.3904H36.5389V25.8541V25.5859L37.0219 26.3904H37.129H37.1828H39.5432V21.1333H37.1291H37.129ZM18.9438 25.6396H18.4073H18.0855V25.318V22.6891L18.0318 22.8121V22.8107L16.7838 25.6396H16.7443H16.4574H15.9932L14.7058 22.6891V25.6396H12.8821L12.5066 24.835H10.6825L10.3069 25.6396H9.36393L10.9509 21.8844H12.2919L13.7939 25.4785V21.8844H14.1157H15.2151L15.2404 21.9382H15.2423L15.9191 23.4113L16.4051 24.5149L16.4223 24.4593L17.4951 21.8845H18.9438V25.6396H18.9438ZM22.6454 22.6891H20.5532V23.3864H22.5917V24.1374H20.5532V24.8887H22.6454V25.6931H19.6413V21.8845H22.6454V22.6891ZM26.4716 24.0723C26.473 24.0736 26.4748 24.0744 26.4765 24.0756C26.4967 24.097 26.5141 24.1186 26.5289 24.1392C26.6317 24.2739 26.7148 24.4742 26.7189 24.768C26.7192 24.7731 26.7195 24.7781 26.7198 24.7832C26.7198 24.7861 26.7203 24.7887 26.7203 24.7917C26.7203 24.7934 26.7202 24.7947 26.7202 24.7963C26.7214 24.8259 26.7222 24.856 26.7222 24.8887V25.6397H25.9177V25.2104C25.9177 24.9958 25.9177 24.6739 25.7565 24.4593C25.7058 24.4086 25.6545 24.3752 25.5987 24.3515C25.5183 24.2994 25.3659 24.2985 25.113 24.2985H24.1471V25.6397H23.2354V21.8845H25.274C25.7565 21.8845 26.0785 21.8845 26.3468 22.0454C26.6097 22.2033 26.7685 22.465 26.7745 22.8796C26.7621 23.4505 26.3956 23.7637 26.1321 23.8693C26.1321 23.8693 26.3111 23.9053 26.4716 24.0723ZM28.278 25.6396H27.366V21.8844H28.278V25.6396ZM38.7387 25.6396H37.5584L35.8418 22.7963V25.1567L35.8362 25.1511V25.6419H34.9299V25.6397H34.0179L33.696 24.835H31.8183L31.4964 25.6932H30.4772C30.0484 25.6932 29.5116 25.586 29.1898 25.2641C28.868 24.9423 28.7072 24.5131 28.7072 23.8158C28.7072 23.2794 28.8144 22.7426 29.1898 22.3136C29.4579 21.9915 29.9409 21.8845 30.5308 21.8845H31.3893V22.6891H30.5308C30.209 22.6891 30.0484 22.7425 29.8333 22.9038C29.6727 23.0646 29.5653 23.3864 29.5653 23.7619C29.5653 24.1912 29.619 24.4593 29.8333 24.6739C29.9947 24.835 30.2091 24.8887 30.4772 24.8887H30.8527L32.0864 21.9383H32.6231H33.4276L34.9298 25.5325V25.3492V24.1375V24.0304V21.9384H36.2708L37.8262 24.5669V21.9384H38.7386V25.6398H38.7387V25.6396Z" fill="white"/>
<path d="M25.7066 23.4483C25.7223 23.4316 25.7365 23.4126 25.7485 23.3909C25.7971 23.3139 25.8528 23.1754 25.8228 22.9863C25.8216 22.9689 25.8184 22.9529 25.8147 22.9374C25.8137 22.9331 25.8138 22.9293 25.8127 22.925L25.8121 22.925C25.7854 22.8332 25.7173 22.7767 25.6494 22.7424C25.5418 22.689 25.3809 22.689 25.22 22.689H24.147V23.5474H25.22C25.3809 23.5474 25.5419 23.5474 25.6494 23.4936C25.6655 23.4854 25.6798 23.4743 25.6936 23.4618L25.6938 23.4625C25.6938 23.4625 25.6994 23.4567 25.7066 23.4483Z" fill="white"/>
<path d="M41.9035 31.0042C41.9035 30.6287 41.7963 30.2531 41.6354 29.9849V27.571H41.633V27.4098C41.633 27.4098 39.3845 27.4098 39.0498 27.4098C38.7153 27.4098 38.3093 27.7316 38.3093 27.7316V27.4098H35.8418C35.4661 27.4098 34.9836 27.5172 34.7688 27.7316V27.4098H30.3701V27.571V27.7315C30.0484 27.4635 29.4579 27.4097 29.1899 27.4097H26.293V27.5709V27.7315C26.0248 27.4634 25.3808 27.4097 25.0588 27.4097H21.8406L21.0894 28.2144L20.392 27.4097H20.1674H19.802H15.5642V27.5708V27.9946V32.828H20.2849L21.0606 32.0522L21.7329 32.828H21.7868H24.5069H24.6302H24.6838H24.7372V32.2916V31.5943H25.0056C25.3808 31.5943 25.8638 31.5943 26.2393 31.4331V32.7741V32.8817H28.6534V32.7741V31.4868H28.7604C28.9215 31.4868 28.9215 31.4868 28.9215 31.6477V32.7741V32.8817H36.2169C36.7001 32.8817 37.1826 32.7741 37.4508 32.5596V32.7741V32.8817H39.7576C40.2401 32.8817 40.7233 32.828 41.0452 32.6133C41.5391 32.317 41.8504 31.7925 41.8967 31.1669C41.8988 31.1484 41.9015 31.1298 41.9032 31.1113L41.9001 31.1082C41.9021 31.0735 41.9035 31.0392 41.9035 31.0042ZM25.0057 30.6824H23.9326V30.8429V31.1649V31.4869V32.077H22.1693L21.1431 30.8967L21.1396 30.9006L21.0894 30.8429L19.9093 32.077H16.4761V28.3219H19.963L20.9156 29.3654L21.1159 29.5839L21.143 29.5557L22.2697 28.322H25.1128C25.6646 28.322 26.2824 28.4582 26.5166 29.0196C26.5447 29.1308 26.5611 29.2544 26.5611 29.3948C26.5611 30.4676 25.8101 30.6824 25.0057 30.6824ZM30.3701 30.6286C30.4772 30.7892 30.5309 31.0041 30.5309 31.3261V32.0769H29.6191V31.5943C29.6191 31.3793 29.6191 31.0041 29.4579 30.8429C29.3509 30.6824 29.1361 30.6824 28.8145 30.6824H27.8489V32.077H26.937V28.2683H28.9754C29.4043 28.2683 29.7797 28.2683 30.0484 28.429C30.3165 28.5901 30.5309 28.8584 30.5309 29.2875C30.5309 29.8775 30.1556 30.1994 29.8873 30.3068C30.1556 30.4137 30.3165 30.5213 30.3701 30.6286ZM34.0717 29.0726H31.9792V29.77H34.0178V30.5212H31.9792V31.2723H34.0717V32.0769H31.0676V28.2682H34.0717V29.0726ZM36.3245 32.077H34.6078V31.2724H36.3245C36.4852 31.2724 36.5927 31.2724 36.7003 31.165C36.754 31.1113 36.8073 31.0042 36.8073 30.8968C36.8073 30.7892 36.754 30.6825 36.7003 30.6287C36.6464 30.5751 36.5389 30.5214 36.3781 30.5214C35.5197 30.4677 34.5005 30.5214 34.5005 29.3413C34.5005 28.8048 34.8224 28.2146 35.7881 28.2146H37.5582V29.1265H35.8954C35.7345 29.1265 35.627 29.1265 35.5197 29.1801C35.4126 29.2339 35.4127 29.3413 35.4127 29.4485C35.4127 29.6095 35.5197 29.6632 35.627 29.7164C35.7345 29.7702 35.8417 29.7702 35.9488 29.7702H36.4317C36.9146 29.7702 37.2364 29.8775 37.4509 30.0921C37.6119 30.2531 37.7192 30.5214 37.7192 30.8968C37.7192 31.7012 37.2364 32.077 36.3245 32.077ZM40.9379 31.7012C40.7236 31.9161 40.3479 32.077 39.8113 32.077H38.095V31.2724H39.8112C39.9722 31.2724 40.0797 31.2724 40.1869 31.165C40.2404 31.1113 40.2942 31.0042 40.2942 30.8968C40.2942 30.7892 40.2404 30.6825 40.1869 30.6287C40.1332 30.5751 40.0261 30.5214 39.865 30.5214C39.007 30.4677 37.9875 30.5214 37.9875 29.3414C37.9875 28.8315 38.2792 28.3709 38.9986 28.2342C39.0846 28.2223 39.1755 28.2146 39.275 28.2146H41.0454V29.1265H39.865H39.436H39.3823C39.2213 29.1265 39.1142 29.1265 39.007 29.1801C38.953 29.2339 38.8993 29.3413 38.8993 29.4485C38.8993 29.6095 38.953 29.6632 39.1142 29.7164C39.2213 29.7702 39.3286 29.7702 39.436 29.7702H39.4893H39.9187C40.1531 29.7702 40.3304 29.7991 40.4926 29.8561C40.6412 29.9099 41.1331 30.1299 41.2431 30.7043C41.2527 30.7645 41.2597 30.8273 41.2597 30.8968C41.2597 31.2187 41.1524 31.4869 40.9379 31.7012Z" fill="white"/>
</g>
<g clip-path="url(#clip1_356_4180)">
<path d="M46 38.0352C46 39.3248 44.9546 40.3703 43.6651 40.3703H8.8349C7.54536 40.3704 6.5 39.3248 6.5 38.0352V15.4644C6.5 14.1748 7.54536 13.1294 8.8349 13.1294H43.6651C44.9547 13.1294 46 14.1748 46 15.4644V38.0352Z" fill="#306FC5"/>
<path opacity="0.15" d="M8.16 38.0352V15.4644C8.16 14.1748 9.20552 13.1294 10.4951 13.1294H8.83482C7.54536 13.1294 6.5 14.1748 6.5 15.4644V38.0353C6.5 39.3249 7.54536 40.3704 8.8349 40.3704H10.4951C9.2056 40.3704 8.16 39.3248 8.16 38.0352Z" fill="#202121"/>
<path d="M12.2544 24.0304H13.4346L12.8447 22.5283L12.2544 24.0304Z" fill="white"/>
<path d="M18.531 29.0728V29.7703H20.516V30.5214H18.531V31.3263H20.7304L21.7496 30.1995L20.7841 29.0728H18.531Z" fill="white"/>
<path d="M34.0339 22.5283L33.3901 24.0304H34.6241L34.0339 22.5283Z" fill="white"/>
<path d="M24.2708 31.755V28.6973L22.876 30.1994L24.2708 31.755Z" fill="white"/>
<path d="M26.8994 29.5558C26.8457 29.2339 26.6309 29.0728 26.3089 29.0728H25.1826V30.0383H26.3629C26.6847 30.0384 26.8994 29.8776 26.8994 29.5558Z" fill="white"/>
<path d="M30.6543 29.9312C30.7617 29.8774 30.8155 29.7163 30.8155 29.5557C30.8692 29.3413 30.7617 29.2339 30.6543 29.1802C30.5473 29.1265 30.3862 29.1265 30.2255 29.1265H29.1523V29.9849H30.2254C30.3861 29.9849 30.5473 29.9849 30.6543 29.9312Z" fill="white"/>
<path d="M38.379 21.1333V21.777L38.0573 21.1333H35.5363V21.777L35.2142 21.1333H31.781C31.191 21.1333 30.7079 21.2407 30.279 21.4552V21.1333H27.8651V21.187V21.4552C27.5969 21.2408 27.2751 21.1333 26.8459 21.1333H18.2091L17.6188 22.4744L17.0288 21.1333H15.0977H14.293V21.777L14.0247 21.1333H13.971H11.6644L10.5913 23.6545L9.35764 26.3903L9.33496 26.4441H9.35764H12.0936H12.1278L12.1473 26.3903L12.4693 25.5858H13.1666L13.4885 26.4441H16.5996V26.3903V25.8004L16.868 26.444H18.4235L18.6916 25.8004V26.3903V26.4441H19.9254H26.0946H26.1483V25.0493H26.2559C26.363 25.0493 26.363 25.0493 26.363 25.2103V26.3904H30.2254V26.0686C30.5473 26.2297 31.0298 26.3904 31.6736 26.3904H33.2831L33.605 25.5323H34.3558L34.6777 26.3904H37.7889V25.8541V25.5859L38.2719 26.3904H38.379H38.4328H40.7932V21.1333H38.3791H38.379ZM20.1938 25.6396H19.6573H19.3355V25.318V22.6891L19.2818 22.8121V22.8107L18.0338 25.6396H17.9943H17.7074H17.2432L15.9558 22.6891V25.6396H14.1321L13.7566 24.835H11.9325L11.5569 25.6396H10.6139L12.2009 21.8844H13.5419L15.0439 25.4785V21.8844H15.3657H16.4651L16.4904 21.9382H16.4923L17.1691 23.4113L17.6551 24.5149L17.6723 24.4593L18.7451 21.8845H20.1938V25.6396H20.1938ZM23.8954 22.6891H21.8032V23.3864H23.8417V24.1374H21.8032V24.8887H23.8954V25.6931H20.8913V21.8845H23.8954V22.6891ZM27.7216 24.0723C27.723 24.0736 27.7248 24.0744 27.7265 24.0756C27.7467 24.097 27.7641 24.1186 27.7789 24.1392C27.8817 24.2739 27.9648 24.4742 27.9689 24.768C27.9692 24.7731 27.9695 24.7781 27.9698 24.7832C27.9698 24.7861 27.9703 24.7887 27.9703 24.7917C27.9703 24.7934 27.9702 24.7947 27.9702 24.7963C27.9714 24.8259 27.9722 24.856 27.9722 24.8887V25.6397H27.1677V25.2104C27.1677 24.9958 27.1677 24.6739 27.0065 24.4593C26.9558 24.4086 26.9045 24.3752 26.8487 24.3515C26.7683 24.2994 26.6159 24.2985 26.363 24.2985H25.3971V25.6397H24.4854V21.8845H26.524C27.0065 21.8845 27.3285 21.8845 27.5968 22.0454C27.8597 22.2033 28.0185 22.465 28.0245 22.8796C28.0121 23.4505 27.6456 23.7637 27.3821 23.8693C27.3821 23.8693 27.5611 23.9053 27.7216 24.0723ZM29.528 25.6396H28.616V21.8844H29.528V25.6396ZM39.9887 25.6396H38.8084L37.0918 22.7963V25.1567L37.0862 25.1511V25.6419H36.1799V25.6397H35.2679L34.946 24.835H33.0683L32.7464 25.6932H31.7272C31.2984 25.6932 30.7616 25.586 30.4398 25.2641C30.118 24.9423 29.9572 24.5131 29.9572 23.8158C29.9572 23.2794 30.0644 22.7426 30.4398 22.3136C30.7079 21.9915 31.1909 21.8845 31.7808 21.8845H32.6393V22.6891H31.7808C31.459 22.6891 31.2984 22.7425 31.0833 22.9038C30.9227 23.0646 30.8153 23.3864 30.8153 23.7619C30.8153 24.1912 30.869 24.4593 31.0833 24.6739C31.2447 24.835 31.4591 24.8887 31.7272 24.8887H32.1027L33.3364 21.9383H33.8731H34.6776L36.1798 25.5325V25.3492V24.1375V24.0304V21.9384H37.5208L39.0762 24.5669V21.9384H39.9886V25.6398H39.9887V25.6396Z" fill="white"/>
<path d="M26.9566 23.4483C26.9723 23.4316 26.9865 23.4126 26.9985 23.3909C27.0471 23.3139 27.1028 23.1754 27.0728 22.9863C27.0716 22.9689 27.0684 22.9529 27.0647 22.9374C27.0637 22.9331 27.0638 22.9293 27.0627 22.925L27.0621 22.925C27.0354 22.8332 26.9673 22.7767 26.8994 22.7424C26.7918 22.689 26.6309 22.689 26.47 22.689H25.397V23.5474H26.47C26.6309 23.5474 26.7919 23.5474 26.8994 23.4936C26.9155 23.4854 26.9298 23.4743 26.9436 23.4618L26.9438 23.4625C26.9438 23.4625 26.9494 23.4567 26.9566 23.4483Z" fill="white"/>
<path d="M43.1535 31.0042C43.1535 30.6287 43.0463 30.2531 42.8854 29.9849V27.571H42.883V27.4098C42.883 27.4098 40.6345 27.4098 40.2998 27.4098C39.9653 27.4098 39.5593 27.7316 39.5593 27.7316V27.4098H37.0918C36.7161 27.4098 36.2336 27.5172 36.0188 27.7316V27.4098H31.6201V27.571V27.7315C31.2984 27.4635 30.7079 27.4097 30.4399 27.4097H27.543V27.5709V27.7315C27.2748 27.4634 26.6308 27.4097 26.3088 27.4097H23.0906L22.3394 28.2144L21.642 27.4097H21.4174H21.052H16.8142V27.5708V27.9946V32.828H21.5349L22.3106 32.0522L22.9829 32.828H23.0368H25.7569H25.8802H25.9338H25.9872V32.2916V31.5943H26.2556C26.6308 31.5943 27.1138 31.5943 27.4893 31.4331V32.7741V32.8817H29.9034V32.7741V31.4868H30.0104C30.1715 31.4868 30.1715 31.4868 30.1715 31.6477V32.7741V32.8817H37.4669C37.9501 32.8817 38.4326 32.7741 38.7008 32.5596V32.7741V32.8817H41.0076C41.4901 32.8817 41.9733 32.828 42.2952 32.6133C42.7891 32.317 43.1004 31.7925 43.1467 31.1669C43.1488 31.1484 43.1515 31.1298 43.1532 31.1113L43.1501 31.1082C43.1521 31.0735 43.1535 31.0392 43.1535 31.0042ZM26.2557 30.6824H25.1826V30.8429V31.1649V31.4869V32.077H23.4193L22.3931 30.8967L22.3896 30.9006L22.3394 30.8429L21.1593 32.077H17.7261V28.3219H21.213L22.1656 29.3654L22.3659 29.5839L22.393 29.5557L23.5197 28.322H26.3628C26.9146 28.322 27.5324 28.4582 27.7666 29.0196C27.7947 29.1308 27.8111 29.2544 27.8111 29.3948C27.8111 30.4676 27.0601 30.6824 26.2557 30.6824ZM31.6201 30.6286C31.7272 30.7892 31.7809 31.0041 31.7809 31.3261V32.0769H30.8691V31.5943C30.8691 31.3793 30.8691 31.0041 30.7079 30.8429C30.6009 30.6824 30.3861 30.6824 30.0645 30.6824H29.0989V32.077H28.187V28.2683H30.2254C30.6543 28.2683 31.0297 28.2683 31.2984 28.429C31.5665 28.5901 31.7809 28.8584 31.7809 29.2875C31.7809 29.8775 31.4056 30.1994 31.1373 30.3068C31.4056 30.4137 31.5665 30.5213 31.6201 30.6286ZM35.3217 29.0726H33.2292V29.77H35.2678V30.5212H33.2292V31.2723H35.3217V32.0769H32.3176V28.2682H35.3217V29.0726ZM37.5745 32.077H35.8578V31.2724H37.5745C37.7352 31.2724 37.8427 31.2724 37.9503 31.165C38.004 31.1113 38.0573 31.0042 38.0573 30.8968C38.0573 30.7892 38.004 30.6825 37.9503 30.6287C37.8964 30.5751 37.7889 30.5214 37.6281 30.5214C36.7697 30.4677 35.7505 30.5214 35.7505 29.3413C35.7505 28.8048 36.0724 28.2146 37.0381 28.2146H38.8082V29.1265H37.1454C36.9845 29.1265 36.877 29.1265 36.7697 29.1801C36.6626 29.2339 36.6627 29.3413 36.6627 29.4485C36.6627 29.6095 36.7697 29.6632 36.877 29.7164C36.9845 29.7702 37.0917 29.7702 37.1988 29.7702H37.6817C38.1646 29.7702 38.4864 29.8775 38.7009 30.0921C38.8619 30.2531 38.9692 30.5214 38.9692 30.8968C38.9692 31.7012 38.4864 32.077 37.5745 32.077ZM42.1879 31.7012C41.9736 31.9161 41.5979 32.077 41.0613 32.077H39.345V31.2724H41.0612C41.2222 31.2724 41.3297 31.2724 41.4369 31.165C41.4904 31.1113 41.5442 31.0042 41.5442 30.8968C41.5442 30.7892 41.4904 30.6825 41.4369 30.6287C41.3832 30.5751 41.2761 30.5214 41.115 30.5214C40.257 30.4677 39.2375 30.5214 39.2375 29.3414C39.2375 28.8315 39.5292 28.3709 40.2486 28.2342C40.3346 28.2223 40.4255 28.2146 40.525 28.2146H42.2954V29.1265H41.115H40.686H40.6323C40.4713 29.1265 40.3642 29.1265 40.257 29.1801C40.203 29.2339 40.1493 29.3413 40.1493 29.4485C40.1493 29.6095 40.203 29.6632 40.3642 29.7164C40.4713 29.7702 40.5786 29.7702 40.686 29.7702H40.7393H41.1687C41.4031 29.7702 41.5804 29.7991 41.7426 29.8561C41.8912 29.9099 42.3831 30.1299 42.4931 30.7043C42.5027 30.7645 42.5097 30.8273 42.5097 30.8968C42.5097 31.2187 42.4024 31.4869 42.1879 31.7012Z" fill="white"/>
</g>
<defs>
<clipPath id="clip0_356_4180">
<rect width="39.5" height="39.5" fill="white" transform="translate(5.25 7)"/>
</clipPath>
<clipPath id="clip1_356_4180">
<rect width="39.5" height="39.5" fill="white" transform="translate(6.5 7)"/>
</clipPath>
</defs>
</svg>
