<svg width="50" height="50" viewBox="0 0 50 50" fill="none" xmlns="http://www.w3.org/2000/svg">
<path d="M17.9563 33.6817L20.3406 19.6898H24.1544L21.7683 33.6817H17.9563ZM35.5469 19.9915C34.7915 19.708 33.6074 19.4038 32.1289 19.4038C28.3603 19.4038 25.706 21.3015 25.6833 24.0213C25.662 26.0318 27.5784 27.1535 29.025 27.8227C30.5096 28.5087 31.0085 28.946 31.0014 29.5583C30.9919 30.4963 29.8159 30.9245 28.7196 30.9245C27.1933 30.9245 26.3824 30.7125 25.1298 30.1903L24.6382 29.9679L24.1031 33.1001C24.9939 33.4908 26.641 33.829 28.3514 33.8466C32.3604 33.8466 34.9629 31.9706 34.9925 29.0661C35.0067 27.4743 33.9907 26.2632 31.7904 25.2645C30.4574 24.6172 29.641 24.1853 29.6497 23.5299C29.6497 22.9483 30.3407 22.3264 31.8339 22.3264C33.0809 22.307 33.9844 22.579 34.6883 22.8625L35.03 23.0239L35.5469 19.9915ZM45.361 19.6896H42.4141C41.5013 19.6896 40.818 19.9388 40.4171 20.8499L34.7531 33.6724H38.7579C38.7579 33.6724 39.4126 31.9484 39.5606 31.5698C39.9983 31.5698 43.8888 31.5758 44.4449 31.5758C44.559 32.0657 44.9089 33.6724 44.9089 33.6724H48.4478L45.361 19.6892V19.6896ZM40.6854 28.7247C41.0009 27.9185 42.2049 24.8133 42.2049 24.8133C42.1825 24.8506 42.518 24.0033 42.7105 23.4779L42.9683 24.6843C42.9683 24.6843 43.6985 28.0242 43.8512 28.7245H40.6854V28.7247ZM14.7187 19.6896L10.985 29.2315L10.5872 27.2924C9.89207 25.0571 7.72647 22.6354 5.30542 21.423L8.71954 33.6594L12.7546 33.6549L18.7588 19.6895L14.7187 19.6894" fill="#0E4595"/>
<path d="M7.50096 19.689H1.35124L1.30249 19.9801C6.08691 21.1383 9.25258 23.9371 10.567 27.3005L9.22978 20.8706C8.99899 19.9847 8.32942 19.7202 7.5011 19.6893" fill="#F2AE14"/>
</svg>
